<mxfile host="app.diagrams.net" modified="2022-03-04T10:07:55.212Z" agent="5.0 (Windows)" etag="A6pIREoWPrcbzJwUGUnh" version="16.6.5" type="github" pages="6">
  <diagram id="C5RBs43oDa-KdzZeNtuy" name="Page-1">
    <mxGraphModel dx="1422" dy="872" grid="1" gridSize="10" guides="1" tooltips="1" connect="1" arrows="1" fold="1" page="1" pageScale="1" pageWidth="827" pageHeight="1169" math="0" shadow="0">
      <root>
        <mxCell id="WIyWlLk6GJQsqaUBKTNV-0" />
        <mxCell id="WIyWlLk6GJQsqaUBKTNV-1" parent="WIyWlLk6GJQsqaUBKTNV-0" />
        <mxCell id="wfV_NHbF7TTvsfzsbDLg-0" value="&lt;b&gt;&lt;font style=&quot;font-size: 20px&quot;&gt;Github Repo&lt;/font&gt;&lt;/b&gt;" style="rounded=0;whiteSpace=wrap;html=1;" parent="WIyWlLk6GJQsqaUBKTNV-1" vertex="1">
          <mxGeometry x="30" y="70" width="510" height="70" as="geometry" />
        </mxCell>
        <mxCell id="wfV_NHbF7TTvsfzsbDLg-2" value="dev_branch_1" style="whiteSpace=wrap;html=1;fontSize=20;" parent="WIyWlLk6GJQsqaUBKTNV-1" vertex="1">
          <mxGeometry x="30" y="140" width="139" height="60" as="geometry" />
        </mxCell>
        <mxCell id="wfV_NHbF7TTvsfzsbDLg-14" style="edgeStyle=orthogonalEdgeStyle;rounded=0;orthogonalLoop=1;jettySize=auto;html=1;exitX=1;exitY=0.5;exitDx=0;exitDy=0;entryX=0;entryY=0.5;entryDx=0;entryDy=0;fontSize=17;" parent="WIyWlLk6GJQsqaUBKTNV-1" source="wfV_NHbF7TTvsfzsbDLg-3" target="wfV_NHbF7TTvsfzsbDLg-12" edge="1">
          <mxGeometry relative="1" as="geometry" />
        </mxCell>
        <mxCell id="wfV_NHbF7TTvsfzsbDLg-3" value="master" style="whiteSpace=wrap;html=1;fontSize=20;" parent="WIyWlLk6GJQsqaUBKTNV-1" vertex="1">
          <mxGeometry x="420" y="140" width="120" height="60" as="geometry" />
        </mxCell>
        <mxCell id="wfV_NHbF7TTvsfzsbDLg-5" value="REMOTE/PC" style="whiteSpace=wrap;html=1;fontSize=20;" parent="WIyWlLk6GJQsqaUBKTNV-1" vertex="1">
          <mxGeometry x="30" y="360" width="120" height="60" as="geometry" />
        </mxCell>
        <mxCell id="wfV_NHbF7TTvsfzsbDLg-6" value="" style="endArrow=classic;html=1;rounded=0;fontSize=20;entryX=0.5;entryY=1;entryDx=0;entryDy=0;" parent="WIyWlLk6GJQsqaUBKTNV-1" target="wfV_NHbF7TTvsfzsbDLg-2" edge="1">
          <mxGeometry width="50" height="50" relative="1" as="geometry">
            <mxPoint x="100" y="360" as="sourcePoint" />
            <mxPoint x="160" y="310" as="targetPoint" />
          </mxGeometry>
        </mxCell>
        <mxCell id="wfV_NHbF7TTvsfzsbDLg-7" value="" style="endArrow=classic;html=1;rounded=0;fontSize=20;entryX=0;entryY=0.5;entryDx=0;entryDy=0;" parent="WIyWlLk6GJQsqaUBKTNV-1" target="wfV_NHbF7TTvsfzsbDLg-3" edge="1">
          <mxGeometry width="50" height="50" relative="1" as="geometry">
            <mxPoint x="169" y="170" as="sourcePoint" />
            <mxPoint x="219" y="120" as="targetPoint" />
          </mxGeometry>
        </mxCell>
        <mxCell id="wfV_NHbF7TTvsfzsbDLg-8" value="Pull Request" style="edgeLabel;html=1;align=center;verticalAlign=middle;resizable=0;points=[];fontSize=20;" parent="wfV_NHbF7TTvsfzsbDLg-7" vertex="1" connectable="0">
          <mxGeometry x="-0.2318" y="3" relative="1" as="geometry">
            <mxPoint x="30" y="3" as="offset" />
          </mxGeometry>
        </mxCell>
        <mxCell id="wfV_NHbF7TTvsfzsbDLg-11" value="&lt;div style=&quot;font-size: 17px&quot;&gt;1. &lt;b&gt;Pull &lt;/b&gt;latest code from &lt;b style=&quot;font-size: 17px&quot;&gt;dev_branch_1&lt;/b&gt;&lt;/div&gt;&lt;div style=&quot;font-size: 17px&quot;&gt;2. &lt;b&gt;Push &lt;/b&gt;changes to &lt;b style=&quot;font-size: 17px&quot;&gt;dev_branch_1&lt;/b&gt;&lt;/div&gt;&lt;div style=&quot;font-size: 17px&quot;&gt;&lt;b&gt;3. Pull request &lt;/b&gt;(to merge code to master)&lt;b&gt;&lt;br&gt;&lt;/b&gt;&lt;/div&gt;&lt;div style=&quot;font-size: 17px&quot;&gt;&lt;b&gt;&lt;br&gt;&lt;/b&gt;&lt;/div&gt;&lt;div style=&quot;font-size: 17px&quot;&gt;If merge to master is success.&lt;/div&gt;&lt;div style=&quot;font-size: 17px&quot;&gt;&lt;br&gt;&lt;/div&gt;&lt;div style=&quot;font-size: 17px&quot;&gt;Automatically Travis CI will pull code from master and run various tests on i.&lt;/div&gt;&lt;div style=&quot;font-size: 17px&quot;&gt;Travis CI will automatically deploy the application to Cloud (AWS Hosting)&lt;br&gt; &lt;/div&gt;" style="rounded=0;whiteSpace=wrap;html=1;fontSize=17;align=left;" parent="WIyWlLk6GJQsqaUBKTNV-1" vertex="1">
          <mxGeometry x="440" y="280" width="440" height="330" as="geometry" />
        </mxCell>
        <mxCell id="wfV_NHbF7TTvsfzsbDLg-15" style="edgeStyle=orthogonalEdgeStyle;rounded=0;orthogonalLoop=1;jettySize=auto;html=1;entryX=0;entryY=0.5;entryDx=0;entryDy=0;fontSize=17;" parent="WIyWlLk6GJQsqaUBKTNV-1" source="wfV_NHbF7TTvsfzsbDLg-12" target="wfV_NHbF7TTvsfzsbDLg-13" edge="1">
          <mxGeometry relative="1" as="geometry" />
        </mxCell>
        <mxCell id="wfV_NHbF7TTvsfzsbDLg-12" value="&lt;div&gt;Travis CI&lt;/div&gt;" style="whiteSpace=wrap;html=1;fontSize=17;" parent="WIyWlLk6GJQsqaUBKTNV-1" vertex="1">
          <mxGeometry x="630" y="140" width="120" height="60" as="geometry" />
        </mxCell>
        <mxCell id="wfV_NHbF7TTvsfzsbDLg-13" value="&lt;div&gt;AWS&lt;/div&gt;&lt;div&gt;Hosting&lt;br&gt;&lt;/div&gt;" style="whiteSpace=wrap;html=1;fontSize=17;" parent="WIyWlLk6GJQsqaUBKTNV-1" vertex="1">
          <mxGeometry x="810" y="140" width="120" height="60" as="geometry" />
        </mxCell>
        <mxCell id="wfV_NHbF7TTvsfzsbDLg-16" value="" style="endArrow=none;dashed=1;html=1;dashPattern=1 3;strokeWidth=2;rounded=0;fontSize=17;" parent="WIyWlLk6GJQsqaUBKTNV-1" edge="1">
          <mxGeometry width="50" height="50" relative="1" as="geometry">
            <mxPoint x="565" y="230" as="sourcePoint" />
            <mxPoint x="565" y="90" as="targetPoint" />
          </mxGeometry>
        </mxCell>
        <mxCell id="wfV_NHbF7TTvsfzsbDLg-17" value="Automatic process" style="text;html=1;align=center;verticalAlign=middle;resizable=0;points=[];autosize=1;strokeColor=none;fillColor=none;fontSize=17;" parent="WIyWlLk6GJQsqaUBKTNV-1" vertex="1">
          <mxGeometry x="560" y="85" width="160" height="30" as="geometry" />
        </mxCell>
        <mxCell id="wfV_NHbF7TTvsfzsbDLg-18" value="&lt;div&gt;Testing and auto &lt;br&gt;&lt;/div&gt;&lt;div&gt;deploy to Cloud&lt;/div&gt;" style="text;html=1;align=center;verticalAlign=middle;resizable=0;points=[];autosize=1;strokeColor=none;fillColor=none;fontSize=17;" parent="WIyWlLk6GJQsqaUBKTNV-1" vertex="1">
          <mxGeometry x="620" y="200" width="140" height="50" as="geometry" />
        </mxCell>
      </root>
    </mxGraphModel>
  </diagram>
  <diagram id="_Co4VWyeFAsMZFQYRxUf" name="Page-2">
    <mxGraphModel dx="1422" dy="872" grid="1" gridSize="10" guides="1" tooltips="1" connect="1" arrows="1" fold="1" page="1" pageScale="1" pageWidth="827" pageHeight="1169" math="0" shadow="0">
      <root>
        <mxCell id="8T4bXq6wgF6_mfnSJgoi-0" />
        <mxCell id="8T4bXq6wgF6_mfnSJgoi-1" parent="8T4bXq6wgF6_mfnSJgoi-0" />
        <mxCell id="8T4bXq6wgF6_mfnSJgoi-2" value="" style="endArrow=none;html=1;rounded=0;fontSize=17;" parent="8T4bXq6wgF6_mfnSJgoi-1" edge="1">
          <mxGeometry width="50" height="50" relative="1" as="geometry">
            <mxPoint x="80" y="720" as="sourcePoint" />
            <mxPoint x="80" y="40" as="targetPoint" />
          </mxGeometry>
        </mxCell>
        <mxCell id="8T4bXq6wgF6_mfnSJgoi-4" style="edgeStyle=orthogonalEdgeStyle;rounded=0;orthogonalLoop=1;jettySize=auto;html=1;fontSize=17;" parent="8T4bXq6wgF6_mfnSJgoi-1" source="8T4bXq6wgF6_mfnSJgoi-3" edge="1">
          <mxGeometry relative="1" as="geometry">
            <mxPoint x="55" y="140" as="targetPoint" />
          </mxGeometry>
        </mxCell>
        <mxCell id="8T4bXq6wgF6_mfnSJgoi-3" value="Flow" style="text;html=1;align=center;verticalAlign=middle;resizable=0;points=[];autosize=1;strokeColor=none;fillColor=none;fontSize=17;" parent="8T4bXq6wgF6_mfnSJgoi-1" vertex="1">
          <mxGeometry x="30" y="40" width="50" height="30" as="geometry" />
        </mxCell>
        <mxCell id="8T4bXq6wgF6_mfnSJgoi-5" value="&lt;b&gt;Dev&lt;/b&gt;" style="whiteSpace=wrap;html=1;fontSize=17;" parent="8T4bXq6wgF6_mfnSJgoi-1" vertex="1">
          <mxGeometry x="120" y="40" width="120" height="80" as="geometry" />
        </mxCell>
        <mxCell id="8T4bXq6wgF6_mfnSJgoi-6" value="Create/change features" style="whiteSpace=wrap;html=1;fontSize=17;" parent="8T4bXq6wgF6_mfnSJgoi-1" vertex="1">
          <mxGeometry x="240" y="40" width="330" height="40" as="geometry" />
        </mxCell>
        <mxCell id="8T4bXq6wgF6_mfnSJgoi-7" value="make changes on a non-master branch" style="whiteSpace=wrap;html=1;fontSize=17;" parent="8T4bXq6wgF6_mfnSJgoi-1" vertex="1">
          <mxGeometry x="240" y="80" width="330" height="40" as="geometry" />
        </mxCell>
        <mxCell id="8T4bXq6wgF6_mfnSJgoi-8" value="" style="endArrow=classic;html=1;rounded=0;fontSize=17;" parent="8T4bXq6wgF6_mfnSJgoi-1" edge="1">
          <mxGeometry width="50" height="50" relative="1" as="geometry">
            <mxPoint x="360" y="120" as="sourcePoint" />
            <mxPoint x="360" y="160" as="targetPoint" />
          </mxGeometry>
        </mxCell>
        <mxCell id="8T4bXq6wgF6_mfnSJgoi-10" style="edgeStyle=orthogonalEdgeStyle;rounded=0;orthogonalLoop=1;jettySize=auto;html=1;exitX=0.5;exitY=1;exitDx=0;exitDy=0;fontSize=17;entryX=0.5;entryY=0;entryDx=0;entryDy=0;" parent="8T4bXq6wgF6_mfnSJgoi-1" source="8T4bXq6wgF6_mfnSJgoi-9" target="8T4bXq6wgF6_mfnSJgoi-11" edge="1">
          <mxGeometry relative="1" as="geometry">
            <mxPoint x="360" y="280" as="targetPoint" />
          </mxGeometry>
        </mxCell>
        <mxCell id="8T4bXq6wgF6_mfnSJgoi-9" value="Push to github" style="rounded=0;whiteSpace=wrap;html=1;fontSize=17;" parent="8T4bXq6wgF6_mfnSJgoi-1" vertex="1">
          <mxGeometry x="300" y="160" width="120" height="40" as="geometry" />
        </mxCell>
        <mxCell id="8T4bXq6wgF6_mfnSJgoi-21" style="edgeStyle=orthogonalEdgeStyle;rounded=0;orthogonalLoop=1;jettySize=auto;html=1;exitX=0.5;exitY=1;exitDx=0;exitDy=0;entryX=0.364;entryY=0;entryDx=0;entryDy=0;entryPerimeter=0;fontSize=17;" parent="8T4bXq6wgF6_mfnSJgoi-1" source="8T4bXq6wgF6_mfnSJgoi-11" target="8T4bXq6wgF6_mfnSJgoi-14" edge="1">
          <mxGeometry relative="1" as="geometry" />
        </mxCell>
        <mxCell id="8T4bXq6wgF6_mfnSJgoi-11" value="Create &lt;b&gt;Pull request&lt;/b&gt; to merge with master" style="whiteSpace=wrap;html=1;fontSize=17;" parent="8T4bXq6wgF6_mfnSJgoi-1" vertex="1">
          <mxGeometry x="290" y="241" width="140" height="79" as="geometry" />
        </mxCell>
        <mxCell id="8T4bXq6wgF6_mfnSJgoi-19" value="" style="group" parent="8T4bXq6wgF6_mfnSJgoi-1" vertex="1" connectable="0">
          <mxGeometry x="120" y="360" width="450" height="60" as="geometry" />
        </mxCell>
        <mxCell id="8T4bXq6wgF6_mfnSJgoi-13" value="&lt;b&gt;Test&lt;/b&gt;" style="whiteSpace=wrap;html=1;fontSize=17;" parent="8T4bXq6wgF6_mfnSJgoi-19" vertex="1">
          <mxGeometry width="120" height="60" as="geometry" />
        </mxCell>
        <mxCell id="8T4bXq6wgF6_mfnSJgoi-15" value="Tests run" style="whiteSpace=wrap;html=1;fontSize=17;" parent="8T4bXq6wgF6_mfnSJgoi-19" vertex="1">
          <mxGeometry x="120" y="30" width="330" height="30" as="geometry" />
        </mxCell>
        <mxCell id="8T4bXq6wgF6_mfnSJgoi-14" value="Code pushed to Travis CI" style="whiteSpace=wrap;html=1;fontSize=17;" parent="8T4bXq6wgF6_mfnSJgoi-19" vertex="1">
          <mxGeometry x="120" width="330" height="30" as="geometry" />
        </mxCell>
        <mxCell id="8T4bXq6wgF6_mfnSJgoi-34" style="edgeStyle=orthogonalEdgeStyle;rounded=0;orthogonalLoop=1;jettySize=auto;html=1;entryX=0.361;entryY=-0.1;entryDx=0;entryDy=0;entryPerimeter=0;fontSize=17;" parent="8T4bXq6wgF6_mfnSJgoi-1" source="8T4bXq6wgF6_mfnSJgoi-22" target="8T4bXq6wgF6_mfnSJgoi-28" edge="1">
          <mxGeometry relative="1" as="geometry" />
        </mxCell>
        <mxCell id="8T4bXq6wgF6_mfnSJgoi-22" value="Merge PR with master" style="whiteSpace=wrap;html=1;fontSize=17;" parent="8T4bXq6wgF6_mfnSJgoi-1" vertex="1">
          <mxGeometry x="300" y="480" width="120" height="60" as="geometry" />
        </mxCell>
        <mxCell id="8T4bXq6wgF6_mfnSJgoi-26" value="" style="endArrow=classic;html=1;rounded=0;fontSize=17;exitX=0.361;exitY=1.167;exitDx=0;exitDy=0;exitPerimeter=0;entryX=0.5;entryY=0;entryDx=0;entryDy=0;" parent="8T4bXq6wgF6_mfnSJgoi-1" source="8T4bXq6wgF6_mfnSJgoi-15" target="8T4bXq6wgF6_mfnSJgoi-22" edge="1">
          <mxGeometry width="50" height="50" relative="1" as="geometry">
            <mxPoint x="640" y="380" as="sourcePoint" />
            <mxPoint x="690" y="330" as="targetPoint" />
          </mxGeometry>
        </mxCell>
        <mxCell id="8T4bXq6wgF6_mfnSJgoi-31" value="" style="group" parent="8T4bXq6wgF6_mfnSJgoi-1" vertex="1" connectable="0">
          <mxGeometry x="120" y="600" width="450" height="90" as="geometry" />
        </mxCell>
        <mxCell id="8T4bXq6wgF6_mfnSJgoi-27" value="&lt;b&gt;Prod&lt;/b&gt;" style="whiteSpace=wrap;html=1;fontSize=17;" parent="8T4bXq6wgF6_mfnSJgoi-31" vertex="1">
          <mxGeometry width="120" height="90" as="geometry" />
        </mxCell>
        <mxCell id="8T4bXq6wgF6_mfnSJgoi-28" value="Code pushed to Travis CI" style="whiteSpace=wrap;html=1;fontSize=17;" parent="8T4bXq6wgF6_mfnSJgoi-31" vertex="1">
          <mxGeometry x="120" width="330" height="30" as="geometry" />
        </mxCell>
        <mxCell id="8T4bXq6wgF6_mfnSJgoi-29" value="Tests run" style="whiteSpace=wrap;html=1;fontSize=17;" parent="8T4bXq6wgF6_mfnSJgoi-31" vertex="1">
          <mxGeometry x="120" y="30" width="330" height="30" as="geometry" />
        </mxCell>
        <mxCell id="8T4bXq6wgF6_mfnSJgoi-30" value="Deploy to AWS Elastic Baenstalk" style="whiteSpace=wrap;html=1;fontSize=17;" parent="8T4bXq6wgF6_mfnSJgoi-31" vertex="1">
          <mxGeometry x="120" y="60" width="330" height="30" as="geometry" />
        </mxCell>
      </root>
    </mxGraphModel>
  </diagram>
  <diagram id="9ezqpyFHjDrlmtAkCxfs" name="Page-3">
    <mxGraphModel dx="1422" dy="872" grid="1" gridSize="10" guides="1" tooltips="1" connect="1" arrows="1" fold="1" page="1" pageScale="1" pageWidth="827" pageHeight="1169" math="0" shadow="0">
      <root>
        <mxCell id="9F0EbU5mRekCmHHYWw9v-0" />
        <mxCell id="9F0EbU5mRekCmHHYWw9v-1" parent="9F0EbU5mRekCmHHYWw9v-0" />
        <mxCell id="9F0EbU5mRekCmHHYWw9v-2" value="COPY vs Volume" style="rounded=0;whiteSpace=wrap;html=1;" parent="9F0EbU5mRekCmHHYWw9v-1" vertex="1">
          <mxGeometry x="239" y="50" width="350" height="60" as="geometry" />
        </mxCell>
        <mxCell id="9F0EbU5mRekCmHHYWw9v-14" value="" style="edgeStyle=orthogonalEdgeStyle;rounded=0;orthogonalLoop=1;jettySize=auto;html=1;fontSize=14;" parent="9F0EbU5mRekCmHHYWw9v-1" source="9F0EbU5mRekCmHHYWw9v-3" target="9F0EbU5mRekCmHHYWw9v-12" edge="1">
          <mxGeometry relative="1" as="geometry" />
        </mxCell>
        <mxCell id="9F0EbU5mRekCmHHYWw9v-3" value="Local Folder" style="whiteSpace=wrap;html=1;fillColor=#d5e8d4;strokeColor=#82b366;align=center;verticalAlign=top;fontSize=17;fontStyle=1" parent="9F0EbU5mRekCmHHYWw9v-1" vertex="1">
          <mxGeometry x="80" y="160" width="240" height="230" as="geometry" />
        </mxCell>
        <mxCell id="9F0EbU5mRekCmHHYWw9v-20" style="edgeStyle=orthogonalEdgeStyle;rounded=0;orthogonalLoop=1;jettySize=auto;html=1;fontSize=14;" parent="9F0EbU5mRekCmHHYWw9v-1" source="9F0EbU5mRekCmHHYWw9v-4" edge="1">
          <mxGeometry relative="1" as="geometry">
            <mxPoint x="640" y="500" as="targetPoint" />
          </mxGeometry>
        </mxCell>
        <mxCell id="9F0EbU5mRekCmHHYWw9v-4" value="Docker Container" style="whiteSpace=wrap;html=1;fillColor=#d5e8d4;strokeColor=#82b366;align=center;verticalAlign=top;fontSize=17;fontStyle=1" parent="9F0EbU5mRekCmHHYWw9v-1" vertex="1">
          <mxGeometry x="520" y="160" width="240" height="230" as="geometry" />
        </mxCell>
        <mxCell id="9F0EbU5mRekCmHHYWw9v-5" value="&lt;font style=&quot;font-size: 14px&quot;&gt;TestDemePiWebApiFuel&lt;/font&gt;" style="rounded=0;whiteSpace=wrap;html=1;fontSize=17;" parent="9F0EbU5mRekCmHHYWw9v-1" vertex="1">
          <mxGeometry x="110" y="220" width="171" height="40" as="geometry" />
        </mxCell>
        <mxCell id="9F0EbU5mRekCmHHYWw9v-6" value="allSubFiles" style="rounded=0;whiteSpace=wrap;html=1;fontSize=14;" parent="9F0EbU5mRekCmHHYWw9v-1" vertex="1">
          <mxGeometry x="160" y="260" width="121" height="30" as="geometry" />
        </mxCell>
        <mxCell id="9F0EbU5mRekCmHHYWw9v-12" value="&lt;div&gt;&lt;b&gt;COPY&lt;/b&gt;&lt;/div&gt;&lt;div&gt;&lt;br&gt;&lt;/div&gt;&lt;div&gt;&lt;br&gt;&lt;/div&gt;&lt;div&gt;&lt;br&gt;&lt;/div&gt;&lt;div&gt;Any detected change in any file will trigle re-building and re-runing container from scratch&lt;/div&gt;" style="whiteSpace=wrap;html=1;fontSize=14;" parent="9F0EbU5mRekCmHHYWw9v-1" vertex="1">
          <mxGeometry x="80" y="440" width="240" height="230" as="geometry" />
        </mxCell>
        <mxCell id="9F0EbU5mRekCmHHYWw9v-15" value="&lt;font style=&quot;font-size: 14px&quot;&gt;/app&lt;/font&gt;" style="rounded=0;whiteSpace=wrap;html=1;fontSize=17;" parent="9F0EbU5mRekCmHHYWw9v-1" vertex="1">
          <mxGeometry x="554.5" y="220" width="171" height="40" as="geometry" />
        </mxCell>
        <mxCell id="9F0EbU5mRekCmHHYWw9v-18" style="edgeStyle=orthogonalEdgeStyle;rounded=0;orthogonalLoop=1;jettySize=auto;html=1;fontSize=14;" parent="9F0EbU5mRekCmHHYWw9v-1" source="9F0EbU5mRekCmHHYWw9v-16" target="9F0EbU5mRekCmHHYWw9v-6" edge="1">
          <mxGeometry relative="1" as="geometry" />
        </mxCell>
        <mxCell id="9F0EbU5mRekCmHHYWw9v-16" value="reference" style="rounded=0;whiteSpace=wrap;html=1;fontSize=14;" parent="9F0EbU5mRekCmHHYWw9v-1" vertex="1">
          <mxGeometry x="630" y="260" width="95.5" height="30" as="geometry" />
        </mxCell>
        <mxCell id="9F0EbU5mRekCmHHYWw9v-19" value="docker run -v ${pwd}:/usr/app dckexpl " style="whiteSpace=wrap;html=1;fontSize=14;" parent="9F0EbU5mRekCmHHYWw9v-1" vertex="1">
          <mxGeometry x="460" y="501" width="350" height="40" as="geometry" />
        </mxCell>
        <mxCell id="9F0EbU5mRekCmHHYWw9v-21" value="&lt;div&gt;Any modification to files will be viable in container.&lt;/div&gt;&lt;div&gt;&lt;br&gt;&lt;/div&gt;&lt;div&gt;NOTE: Python while running software is not detecting code modyfications&lt;/div&gt;&lt;div&gt;&lt;br&gt;&lt;/div&gt;&lt;div&gt;Have to restart container. Dont have to re-build it !&lt;br&gt;&lt;/div&gt;" style="whiteSpace=wrap;html=1;fontSize=14;" parent="9F0EbU5mRekCmHHYWw9v-1" vertex="1">
          <mxGeometry x="555" y="541" width="165" height="189" as="geometry" />
        </mxCell>
      </root>
    </mxGraphModel>
  </diagram>
  <diagram id="ZBxA2UrAo-vnV_Vem4QD" name="Page-4">
    <mxGraphModel dx="2249" dy="872" grid="1" gridSize="10" guides="1" tooltips="1" connect="1" arrows="1" fold="1" page="1" pageScale="1" pageWidth="827" pageHeight="1169" math="0" shadow="0">
      <root>
        <mxCell id="jEPXYuJtUmEdQRtMCOBu-0" />
        <mxCell id="jEPXYuJtUmEdQRtMCOBu-1" parent="jEPXYuJtUmEdQRtMCOBu-0" />
        <mxCell id="jEPXYuJtUmEdQRtMCOBu-2" value="" style="endArrow=classic;html=1;rounded=0;" edge="1" parent="jEPXYuJtUmEdQRtMCOBu-1">
          <mxGeometry width="50" height="50" relative="1" as="geometry">
            <mxPoint x="120" y="440" as="sourcePoint" />
            <mxPoint x="650" y="440" as="targetPoint" />
          </mxGeometry>
        </mxCell>
        <mxCell id="jEPXYuJtUmEdQRtMCOBu-3" value="WebID TEST" style="text;html=1;align=center;verticalAlign=middle;resizable=0;points=[];autosize=1;strokeColor=none;fillColor=default;" vertex="1" parent="jEPXYuJtUmEdQRtMCOBu-1">
          <mxGeometry x="20" y="430" width="90" height="20" as="geometry" />
        </mxCell>
        <mxCell id="jEPXYuJtUmEdQRtMCOBu-5" value="&lt;b&gt;&lt;font style=&quot;font-size: 16px&quot;&gt;- 1 D @ 11:05&lt;/font&gt;&lt;/b&gt;" style="text;html=1;align=center;verticalAlign=middle;resizable=0;points=[];autosize=1;strokeColor=none;fillColor=none;" vertex="1" parent="jEPXYuJtUmEdQRtMCOBu-1">
          <mxGeometry x="145" y="450" width="110" height="20" as="geometry" />
        </mxCell>
        <mxCell id="jEPXYuJtUmEdQRtMCOBu-6" value="" style="endArrow=none;dashed=1;html=1;dashPattern=1 3;strokeWidth=2;rounded=0;" edge="1" parent="jEPXYuJtUmEdQRtMCOBu-1">
          <mxGeometry width="50" height="50" relative="1" as="geometry">
            <mxPoint x="120" y="420" as="sourcePoint" />
            <mxPoint x="200" y="420" as="targetPoint" />
          </mxGeometry>
        </mxCell>
        <mxCell id="jEPXYuJtUmEdQRtMCOBu-8" value="&lt;div style=&quot;color: rgb(212 , 212 , 212) ; background-color: rgb(30 , 30 , 30) ; font-family: &amp;#34;consolas&amp;#34; , &amp;#34;courier new&amp;#34; , monospace ; font-weight: normal ; font-size: 14px ; line-height: 19px&quot;&gt;&lt;div&gt;&lt;span style=&quot;color: #9cdcfe&quot;&gt;current_time&lt;/span&gt;&lt;/div&gt;&lt;/div&gt;" style="text;html=1;align=center;verticalAlign=middle;resizable=0;points=[];autosize=1;strokeColor=none;fillColor=default;" vertex="1" parent="jEPXYuJtUmEdQRtMCOBu-1">
          <mxGeometry x="510" y="280" width="110" height="20" as="geometry" />
        </mxCell>
        <mxCell id="jEPXYuJtUmEdQRtMCOBu-9" value="&lt;div style=&quot;color: rgb(212 , 212 , 212) ; background-color: rgb(30 , 30 , 30) ; font-family: &amp;#34;consolas&amp;#34; , &amp;#34;courier new&amp;#34; , monospace ; font-weight: normal ; font-size: 14px ; line-height: 19px&quot;&gt;&lt;div&gt;&lt;span style=&quot;color: #9cdcfe&quot;&gt;end_query&lt;/span&gt;&lt;/div&gt;&lt;/div&gt;" style="text;html=1;align=center;verticalAlign=middle;resizable=0;points=[];autosize=1;strokeColor=none;fillColor=default;" vertex="1" parent="jEPXYuJtUmEdQRtMCOBu-1">
          <mxGeometry x="320" y="584" width="90" height="20" as="geometry" />
        </mxCell>
        <mxCell id="jEPXYuJtUmEdQRtMCOBu-11" value="&lt;div style=&quot;color: rgb(212 , 212 , 212) ; background-color: rgb(30 , 30 , 30) ; font-family: &amp;#34;consolas&amp;#34; , &amp;#34;courier new&amp;#34; , monospace ; font-weight: normal ; font-size: 14px ; line-height: 19px&quot;&gt;&lt;div&gt;&lt;span style=&quot;color: #9cdcfe&quot;&gt;start_query&lt;/span&gt;&lt;/div&gt;&lt;/div&gt;" style="text;html=1;align=center;verticalAlign=middle;resizable=0;points=[];autosize=1;strokeColor=none;fillColor=default;" vertex="1" parent="jEPXYuJtUmEdQRtMCOBu-1">
          <mxGeometry x="155" y="585" width="100" height="20" as="geometry" />
        </mxCell>
        <mxCell id="d3-io8Sv8TmZ_yZ1datO-2" style="edgeStyle=orthogonalEdgeStyle;rounded=0;orthogonalLoop=1;jettySize=auto;html=1;entryX=0.5;entryY=0.05;entryDx=0;entryDy=0;entryPerimeter=0;" edge="1" parent="jEPXYuJtUmEdQRtMCOBu-1">
          <mxGeometry relative="1" as="geometry">
            <mxPoint x="201" y="300" as="sourcePoint" />
            <mxPoint x="201" y="451" as="targetPoint" />
          </mxGeometry>
        </mxCell>
        <mxCell id="d3-io8Sv8TmZ_yZ1datO-0" value="&lt;div&gt;Get last recorded value&lt;/div&gt;&lt;div&gt;&lt;br&gt;&lt;/div&gt;&lt;div&gt;&lt;div style=&quot;color: rgb(212 , 212 , 212) ; background-color: rgb(30 , 30 , 30) ; font-family: &amp;#34;consolas&amp;#34; , &amp;#34;courier new&amp;#34; , monospace ; font-weight: normal ; line-height: 19px&quot;&gt;&lt;div&gt;&lt;span style=&quot;color: #9cdcfe&quot;&gt;last_recorded_value_timestampobject&lt;/span&gt;&lt;/div&gt;&lt;/div&gt;&lt;/div&gt;" style="text;html=1;align=center;verticalAlign=middle;resizable=0;points=[];autosize=1;strokeColor=none;fillColor=#FFFFFF;" vertex="1" parent="jEPXYuJtUmEdQRtMCOBu-1">
          <mxGeometry x="55" y="250" width="260" height="50" as="geometry" />
        </mxCell>
        <mxCell id="d3-io8Sv8TmZ_yZ1datO-5" value="" style="shape=flexArrow;endArrow=classic;startArrow=classic;html=1;rounded=0;exitX=0.45;exitY=-0.25;exitDx=0;exitDy=0;exitPerimeter=0;" edge="1" parent="jEPXYuJtUmEdQRtMCOBu-1">
          <mxGeometry width="100" height="100" relative="1" as="geometry">
            <mxPoint x="200" y="580" as="sourcePoint" />
            <mxPoint x="200" y="480" as="targetPoint" />
          </mxGeometry>
        </mxCell>
        <mxCell id="d3-io8Sv8TmZ_yZ1datO-8" value="" style="shape=flexArrow;endArrow=classic;startArrow=classic;html=1;rounded=0;fontSize=16;" edge="1" parent="jEPXYuJtUmEdQRtMCOBu-1">
          <mxGeometry width="100" height="100" relative="1" as="geometry">
            <mxPoint x="210" y="360" as="sourcePoint" />
            <mxPoint x="350" y="360" as="targetPoint" />
          </mxGeometry>
        </mxCell>
        <mxCell id="d3-io8Sv8TmZ_yZ1datO-9" value="Start_Query&amp;nbsp; 1 day" style="whiteSpace=wrap;html=1;fontSize=16;" vertex="1" parent="jEPXYuJtUmEdQRtMCOBu-1">
          <mxGeometry x="240" y="310" width="90" height="40" as="geometry" />
        </mxCell>
        <mxCell id="d3-io8Sv8TmZ_yZ1datO-10" value="" style="endArrow=none;dashed=1;html=1;dashPattern=1 3;strokeWidth=2;rounded=0;fontSize=16;" edge="1" parent="jEPXYuJtUmEdQRtMCOBu-1">
          <mxGeometry width="50" height="50" relative="1" as="geometry">
            <mxPoint x="361" y="440" as="sourcePoint" />
            <mxPoint x="361" y="300" as="targetPoint" />
          </mxGeometry>
        </mxCell>
        <mxCell id="d3-io8Sv8TmZ_yZ1datO-11" value="" style="shape=flexArrow;endArrow=classic;startArrow=classic;html=1;rounded=0;exitX=0.45;exitY=-0.25;exitDx=0;exitDy=0;exitPerimeter=0;" edge="1" parent="jEPXYuJtUmEdQRtMCOBu-1">
          <mxGeometry width="100" height="100" relative="1" as="geometry">
            <mxPoint x="361" y="580" as="sourcePoint" />
            <mxPoint x="361" y="480" as="targetPoint" />
          </mxGeometry>
        </mxCell>
        <mxCell id="d3-io8Sv8TmZ_yZ1datO-12" value="&lt;b&gt;&lt;font style=&quot;font-size: 16px&quot;&gt;11:05&lt;/font&gt;&lt;/b&gt;" style="text;html=1;align=center;verticalAlign=middle;resizable=0;points=[];autosize=1;strokeColor=none;fillColor=none;" vertex="1" parent="jEPXYuJtUmEdQRtMCOBu-1">
          <mxGeometry x="330" y="450" width="60" height="20" as="geometry" />
        </mxCell>
        <mxCell id="d3-io8Sv8TmZ_yZ1datO-13" value="" style="shape=flexArrow;endArrow=classic;startArrow=classic;html=1;rounded=0;fontSize=16;" edge="1" parent="jEPXYuJtUmEdQRtMCOBu-1">
          <mxGeometry width="100" height="100" relative="1" as="geometry">
            <mxPoint x="560" y="600" as="sourcePoint" />
            <mxPoint x="560" y="310" as="targetPoint" />
          </mxGeometry>
        </mxCell>
        <mxCell id="d3-io8Sv8TmZ_yZ1datO-14" value="" style="endArrow=classic;html=1;rounded=0;fontSize=16;" edge="1" parent="jEPXYuJtUmEdQRtMCOBu-1">
          <mxGeometry width="50" height="50" relative="1" as="geometry">
            <mxPoint x="120" y="200" as="sourcePoint" />
            <mxPoint x="650" y="200" as="targetPoint" />
          </mxGeometry>
        </mxCell>
        <mxCell id="d3-io8Sv8TmZ_yZ1datO-15" value="Tanks volume" style="text;html=1;align=center;verticalAlign=middle;resizable=0;points=[];autosize=1;strokeColor=none;fillColor=default;fontSize=16;" vertex="1" parent="jEPXYuJtUmEdQRtMCOBu-1">
          <mxGeometry x="10" y="190" width="110" height="20" as="geometry" />
        </mxCell>
        <mxCell id="d3-io8Sv8TmZ_yZ1datO-16" value="" style="endArrow=classic;html=1;rounded=0;fontSize=16;startArrow=none;" edge="1" parent="jEPXYuJtUmEdQRtMCOBu-1" source="d3-io8Sv8TmZ_yZ1datO-20">
          <mxGeometry relative="1" as="geometry">
            <mxPoint x="200" y="170" as="sourcePoint" />
            <mxPoint x="360" y="170" as="targetPoint" />
          </mxGeometry>
        </mxCell>
        <mxCell id="d3-io8Sv8TmZ_yZ1datO-20" value="Query Tk&#39;s vol" style="text;html=1;align=center;verticalAlign=middle;resizable=0;points=[];autosize=1;strokeColor=none;fillColor=none;fontSize=16;" vertex="1" parent="jEPXYuJtUmEdQRtMCOBu-1">
          <mxGeometry x="215" y="160" width="120" height="20" as="geometry" />
        </mxCell>
        <mxCell id="d3-io8Sv8TmZ_yZ1datO-21" value="" style="endArrow=none;html=1;rounded=0;fontSize=16;" edge="1" parent="jEPXYuJtUmEdQRtMCOBu-1" target="d3-io8Sv8TmZ_yZ1datO-20">
          <mxGeometry relative="1" as="geometry">
            <mxPoint x="200" y="170" as="sourcePoint" />
            <mxPoint x="360" y="170" as="targetPoint" />
          </mxGeometry>
        </mxCell>
        <mxCell id="d3-io8Sv8TmZ_yZ1datO-22" value="&lt;div align=&quot;left&quot;&gt;&lt;ul&gt;&lt;li&gt;GET last recorded value&lt;span style=&quot;color: #9cdcfe&quot;&gt; &lt;span style=&quot;background-color: rgb(0 , 0 , 0)&quot;&gt;last_recorded_value_timestampobject&lt;/span&gt;&lt;/span&gt;&lt;span style=&quot;color: #9cdcfe&quot;&gt;&lt;/span&gt;&lt;/li&gt;&lt;li&gt;&lt;span style=&quot;background-color: rgb(0 , 0 , 0)&quot;&gt;&lt;span style=&quot;color: #9cdcfe&quot;&gt;end_query = last_recorded_value_timestampobject&lt;/span&gt;&lt;span style=&quot;color: #d4d4d4&quot;&gt; + &lt;/span&gt;&lt;span style=&quot;color: #4ec9b0&quot;&gt;timedelta&lt;/span&gt;&lt;span style=&quot;color: #d4d4d4&quot;&gt;(&lt;/span&gt;&lt;span style=&quot;color: #9cdcfe&quot;&gt;days&lt;/span&gt;&lt;span style=&quot;color: #d4d4d4&quot;&gt; = &lt;/span&gt;&lt;span style=&quot;color: #b5cea8&quot;&gt;1&lt;/span&gt;&lt;span style=&quot;color: #d4d4d4&quot;&gt;)&lt;/span&gt;&lt;/span&gt;&lt;span style=&quot;color: #9cdcfe&quot;&gt;&lt;/span&gt;&lt;span style=&quot;color: #9cdcfe&quot;&gt;&lt;/span&gt;&lt;/li&gt;&lt;li&gt;&lt;div&gt;Check if &lt;font color=&quot;#66B2FF&quot;&gt;&lt;span style=&quot;background-color: rgb(0 , 0 , 0)&quot;&gt;end_query&lt;/span&gt;&lt;/font&gt; is &amp;gt;= &lt;font color=&quot;#99CCFF&quot;&gt;&lt;span style=&quot;background-color: rgb(0 , 0 , 0)&quot;&gt;current_time&lt;/span&gt;&lt;/font&gt;&lt;/div&gt;&lt;/li&gt;&lt;li&gt;&lt;div style=&quot;color: rgb(212 , 212 , 212) ; background-color: rgb(30 , 30 , 30) ; font-family: &amp;#34;consolas&amp;#34; , &amp;#34;courier new&amp;#34; , monospace ; font-weight: normal ; font-size: 14px ; line-height: 19px&quot;&gt;&lt;div&gt;&lt;span style=&quot;color: #9cdcfe&quot;&gt;start_query&lt;/span&gt;&lt;span style=&quot;color: #d4d4d4&quot;&gt;= &lt;/span&gt;&lt;span style=&quot;color: #9cdcfe&quot;&gt;end_query&lt;/span&gt;&lt;span style=&quot;color: #d4d4d4&quot;&gt; - &lt;/span&gt;&lt;span style=&quot;color: #4ec9b0&quot;&gt;timedelta&lt;/span&gt;&lt;span style=&quot;color: #d4d4d4&quot;&gt;(&lt;/span&gt;&lt;span style=&quot;color: #9cdcfe&quot;&gt;days&lt;/span&gt;&lt;span style=&quot;color: #d4d4d4&quot;&gt; = &lt;/span&gt;&lt;span style=&quot;color: #b5cea8&quot;&gt;1&lt;/span&gt;&lt;span style=&quot;color: #d4d4d4&quot;&gt;)&lt;/span&gt;&lt;/div&gt;&lt;/div&gt;&lt;/li&gt;&lt;/ul&gt;&lt;/div&gt;" style="text;html=1;align=center;verticalAlign=middle;resizable=0;points=[];autosize=1;strokeColor=none;fillColor=#FFFFFF;fontSize=16;" vertex="1" parent="jEPXYuJtUmEdQRtMCOBu-1">
          <mxGeometry x="-35" y="660" width="570" height="110" as="geometry" />
        </mxCell>
      </root>
    </mxGraphModel>
  </diagram>
  <diagram id="JIX23-UK7E8j7HREWu20" name="Page-5">
    <mxGraphModel dx="1422" dy="872" grid="1" gridSize="10" guides="1" tooltips="1" connect="1" arrows="1" fold="1" page="1" pageScale="1" pageWidth="827" pageHeight="1169" math="0" shadow="0">
      <root>
        <mxCell id="gypbntjj0lspbqKL5SlP-0" />
        <mxCell id="gypbntjj0lspbqKL5SlP-1" parent="gypbntjj0lspbqKL5SlP-0" />
        <mxCell id="gypbntjj0lspbqKL5SlP-2" value="vessel" style="swimlane;horizontal=0;startSize=40;fontSize=16;" parent="gypbntjj0lspbqKL5SlP-1" vertex="1">
          <mxGeometry x="8" y="467" width="550" height="433" as="geometry" />
        </mxCell>
        <mxCell id="gypbntjj0lspbqKL5SlP-3" value="NAS / QNAP" style="shape=datastore;whiteSpace=wrap;html=1;fontSize=16;" parent="gypbntjj0lspbqKL5SlP-2" vertex="1">
          <mxGeometry x="322" y="133" width="60" height="60" as="geometry" />
        </mxCell>
        <mxCell id="gypbntjj0lspbqKL5SlP-5" value="" style="fontColor=#0066CC;verticalAlign=top;verticalLabelPosition=bottom;labelPosition=center;align=center;html=1;outlineConnect=0;fillColor=#CCCCCC;strokeColor=#6881B3;gradientColor=none;gradientDirection=north;strokeWidth=2;shape=mxgraph.networks.pc;fontSize=16;" parent="gypbntjj0lspbqKL5SlP-2" vertex="1">
          <mxGeometry x="69" y="303" width="73" height="50" as="geometry" />
        </mxCell>
        <mxCell id="gypbntjj0lspbqKL5SlP-6" value="" style="fontColor=#0066CC;verticalAlign=top;verticalLabelPosition=bottom;labelPosition=center;align=center;html=1;outlineConnect=0;fillColor=#CCCCCC;strokeColor=#6881B3;gradientColor=none;gradientDirection=north;strokeWidth=2;shape=mxgraph.networks.pc;fontSize=16;" parent="gypbntjj0lspbqKL5SlP-2" vertex="1">
          <mxGeometry x="167" y="303" width="74" height="50" as="geometry" />
        </mxCell>
        <mxCell id="gypbntjj0lspbqKL5SlP-7" value="" style="fontColor=#0066CC;verticalAlign=top;verticalLabelPosition=bottom;labelPosition=center;align=center;html=1;outlineConnect=0;fillColor=#CCCCCC;strokeColor=#6881B3;gradientColor=none;gradientDirection=north;strokeWidth=2;shape=mxgraph.networks.external_storage;fontSize=16;" parent="gypbntjj0lspbqKL5SlP-2" vertex="1">
          <mxGeometry x="335.5" y="303" width="33" height="50" as="geometry" />
        </mxCell>
        <mxCell id="gypbntjj0lspbqKL5SlP-10" value="" style="endArrow=classic;startArrow=classic;html=1;rounded=0;fontSize=16;exitX=0.716;exitY=0.02;exitDx=0;exitDy=0;exitPerimeter=0;strokeWidth=3;" parent="gypbntjj0lspbqKL5SlP-2" source="gypbntjj0lspbqKL5SlP-6" target="gypbntjj0lspbqKL5SlP-12" edge="1">
          <mxGeometry width="50" height="50" relative="1" as="geometry">
            <mxPoint x="182" y="165" as="sourcePoint" />
            <mxPoint x="172" y="100" as="targetPoint" />
          </mxGeometry>
        </mxCell>
        <mxCell id="gypbntjj0lspbqKL5SlP-11" value="" style="endArrow=classic;startArrow=classic;html=1;rounded=0;fontSize=16;exitX=0.5;exitY=0.07;exitDx=0;exitDy=0;exitPerimeter=0;strokeWidth=3;" parent="gypbntjj0lspbqKL5SlP-2" source="gypbntjj0lspbqKL5SlP-5" target="gypbntjj0lspbqKL5SlP-12" edge="1">
          <mxGeometry width="50" height="50" relative="1" as="geometry">
            <mxPoint x="102" y="165" as="sourcePoint" />
            <mxPoint x="152" y="100" as="targetPoint" />
          </mxGeometry>
        </mxCell>
        <mxCell id="gypbntjj0lspbqKL5SlP-12" value="" style="shape=mxgraph.cisco.servers.storage_server;sketch=0;html=1;pointerEvents=1;dashed=0;fillColor=#036897;strokeColor=#ffffff;strokeWidth=2;verticalLabelPosition=bottom;verticalAlign=top;align=center;outlineConnect=0;fontSize=16;" parent="gypbntjj0lspbqKL5SlP-2" vertex="1">
          <mxGeometry x="110" y="20" width="58" height="70" as="geometry" />
        </mxCell>
        <mxCell id="gypbntjj0lspbqKL5SlP-17" value="" style="endArrow=classic;html=1;rounded=0;fontSize=16;entryX=0.5;entryY=0;entryDx=0;entryDy=0;entryPerimeter=0;exitX=0.5;exitY=1;exitDx=0;exitDy=0;strokeWidth=3;" parent="gypbntjj0lspbqKL5SlP-2" source="gypbntjj0lspbqKL5SlP-3" target="gypbntjj0lspbqKL5SlP-7" edge="1">
          <mxGeometry width="50" height="50" relative="1" as="geometry">
            <mxPoint x="382" y="70" as="sourcePoint" />
            <mxPoint x="432" y="20" as="targetPoint" />
          </mxGeometry>
        </mxCell>
        <mxCell id="gypbntjj0lspbqKL5SlP-60" value="OT infrastructure" style="swimlane;horizontal=0;dashed=1;labelBackgroundColor=none;fontSize=16;fontColor=default;fillColor=#99FFCC;gradientColor=none;strokeColor=#99FFCC;strokeWidth=8;" parent="gypbntjj0lspbqKL5SlP-2" vertex="1">
          <mxGeometry x="42" y="120" width="508" height="313" as="geometry" />
        </mxCell>
        <mxCell id="ZHhCcTwRR518FxOhqTUu-5" value="" style="endArrow=classic;startArrow=classic;html=1;rounded=0;fontSize=19;fontColor=#FF0000;strokeColor=#000000;strokeWidth=2;entryX=-0.033;entryY=1.017;entryDx=0;entryDy=0;entryPerimeter=0;" edge="1" parent="gypbntjj0lspbqKL5SlP-60">
          <mxGeometry width="50" height="50" relative="1" as="geometry">
            <mxPoint x="70" y="173" as="sourcePoint" />
            <mxPoint x="268" y="63" as="targetPoint" />
          </mxGeometry>
        </mxCell>
        <mxCell id="gypbntjj0lspbqKL5SlP-18" value="&lt;b style=&quot;font-size: 14px;&quot;&gt;Shared folder CIFS (SMB) share / QNAP&lt;/b&gt;" style="rounded=0;whiteSpace=wrap;html=1;fontSize=14;" parent="gypbntjj0lspbqKL5SlP-60" vertex="1">
          <mxGeometry x="340" y="13" width="140" height="77" as="geometry" />
        </mxCell>
        <mxCell id="ZHhCcTwRR518FxOhqTUu-13" value="&lt;font style=&quot;font-size: 14px&quot;&gt;&lt;b&gt;Veeam Agent Computer (Microsoft Windows)&lt;/b&gt;&lt;/font&gt;" style="rounded=0;whiteSpace=wrap;html=1;fontSize=16;" vertex="1" parent="gypbntjj0lspbqKL5SlP-60">
          <mxGeometry x="40" y="243" width="155" height="80" as="geometry" />
        </mxCell>
        <mxCell id="ZHhCcTwRR518FxOhqTUu-0" value="" style="endArrow=classic;startArrow=classic;html=1;rounded=0;exitX=-0.133;exitY=0.55;exitDx=0;exitDy=0;exitPerimeter=0;strokeColor=#FF0000;strokeWidth=5;" edge="1" parent="gypbntjj0lspbqKL5SlP-2" source="gypbntjj0lspbqKL5SlP-3" target="gypbntjj0lspbqKL5SlP-12">
          <mxGeometry width="50" height="50" relative="1" as="geometry">
            <mxPoint x="382" y="3" as="sourcePoint" />
            <mxPoint x="432" y="-47" as="targetPoint" />
          </mxGeometry>
        </mxCell>
        <mxCell id="ZHhCcTwRR518FxOhqTUu-4" value="" style="endArrow=classic;startArrow=classic;html=1;rounded=0;fontSize=19;fontColor=#FF0000;strokeColor=#000000;strokeWidth=2;entryX=-0.033;entryY=1.017;entryDx=0;entryDy=0;entryPerimeter=0;" edge="1" parent="gypbntjj0lspbqKL5SlP-2" source="gypbntjj0lspbqKL5SlP-6" target="gypbntjj0lspbqKL5SlP-3">
          <mxGeometry width="50" height="50" relative="1" as="geometry">
            <mxPoint x="222" y="283" as="sourcePoint" />
            <mxPoint x="291" y="210" as="targetPoint" />
          </mxGeometry>
        </mxCell>
        <mxCell id="ZHhCcTwRR518FxOhqTUu-6" value="" style="edgeStyle=orthogonalEdgeStyle;rounded=0;orthogonalLoop=1;jettySize=auto;html=1;fontSize=19;fontColor=#FF0000;strokeColor=#000000;strokeWidth=2;" edge="1" parent="gypbntjj0lspbqKL5SlP-1" source="gypbntjj0lspbqKL5SlP-16" target="gypbntjj0lspbqKL5SlP-18">
          <mxGeometry relative="1" as="geometry" />
        </mxCell>
        <mxCell id="gypbntjj0lspbqKL5SlP-16" value="&lt;b style=&quot;font-size: 14px;&quot;&gt;Manual backup of last version to External USB&lt;/b&gt;" style="rounded=0;whiteSpace=wrap;html=1;fontSize=14;" parent="gypbntjj0lspbqKL5SlP-1" vertex="1">
          <mxGeometry x="390" y="750" width="130" height="70" as="geometry" />
        </mxCell>
        <mxCell id="gypbntjj0lspbqKL5SlP-27" value="Low Data Usage Network" style="edgeLabel;html=1;align=center;verticalAlign=middle;resizable=0;points=[];fontSize=16;rotation=-35;" parent="gypbntjj0lspbqKL5SlP-1" vertex="1" connectable="0">
          <mxGeometry x="440.00075282851276" y="259.9955503433125" as="geometry">
            <mxPoint x="10.15272519941845" y="41.29070320332525" as="offset" />
          </mxGeometry>
        </mxCell>
        <mxCell id="gypbntjj0lspbqKL5SlP-30" value="" style="aspect=fixed;html=1;points=[];align=center;image;fontSize=12;image=img/lib/azure2/storage/Storage_Sync_Services.svg;" parent="gypbntjj0lspbqKL5SlP-1" vertex="1">
          <mxGeometry x="540" y="170" width="72" height="60" as="geometry" />
        </mxCell>
        <mxCell id="gypbntjj0lspbqKL5SlP-31" value="&lt;div style=&quot;font-size: 14px;&quot;&gt;&lt;b style=&quot;font-size: 14px;&quot;&gt;Veeam Backup Enterprise Manager&lt;/b&gt;&lt;/div&gt;&lt;div style=&quot;font-size: 14px;&quot;&gt;&lt;b style=&quot;font-size: 14px;&quot;&gt;&amp;nbsp;on-premises&lt;/b&gt;.&lt;/div&gt;" style="rounded=0;whiteSpace=wrap;html=1;fontSize=14;" parent="gypbntjj0lspbqKL5SlP-1" vertex="1">
          <mxGeometry x="610" y="110" width="188" height="120" as="geometry" />
        </mxCell>
        <mxCell id="gypbntjj0lspbqKL5SlP-32" value="" style="endArrow=classic;startArrow=classic;html=1;rounded=0;fontSize=16;entryX=0.819;entryY=1.083;entryDx=0;entryDy=0;entryPerimeter=0;strokeWidth=3;" parent="gypbntjj0lspbqKL5SlP-1" target="gypbntjj0lspbqKL5SlP-30" edge="1">
          <mxGeometry width="50" height="50" relative="1" as="geometry">
            <mxPoint x="680" y="360" as="sourcePoint" />
            <mxPoint x="640" y="230" as="targetPoint" />
          </mxGeometry>
        </mxCell>
        <mxCell id="gypbntjj0lspbqKL5SlP-35" value="IT Firewall" style="rounded=0;whiteSpace=wrap;html=1;fontSize=16;" parent="gypbntjj0lspbqKL5SlP-1" vertex="1">
          <mxGeometry x="710" y="350" width="90" height="40" as="geometry" />
        </mxCell>
        <mxCell id="gypbntjj0lspbqKL5SlP-36" value="" style="endArrow=classic;startArrow=classic;html=1;rounded=0;fontSize=16;strokeWidth=3;" parent="gypbntjj0lspbqKL5SlP-1" edge="1">
          <mxGeometry width="50" height="50" relative="1" as="geometry">
            <mxPoint x="690" y="600" as="sourcePoint" />
            <mxPoint x="690" y="440" as="targetPoint" />
          </mxGeometry>
        </mxCell>
        <mxCell id="gypbntjj0lspbqKL5SlP-37" value="DEME HQ" style="swimlane;horizontal=0;startSize=40;fontSize=16;" parent="gypbntjj0lspbqKL5SlP-1" vertex="1">
          <mxGeometry x="600" y="602" width="160" height="105" as="geometry" />
        </mxCell>
        <mxCell id="gypbntjj0lspbqKL5SlP-39" value="" style="fontColor=#0066CC;verticalAlign=top;verticalLabelPosition=bottom;labelPosition=center;align=center;html=1;outlineConnect=0;fillColor=#CCCCCC;strokeColor=#6881B3;gradientColor=none;gradientDirection=north;strokeWidth=2;shape=mxgraph.networks.pc;fontSize=16;" parent="gypbntjj0lspbqKL5SlP-37" vertex="1">
          <mxGeometry x="62" y="30" width="74" height="50" as="geometry" />
        </mxCell>
        <mxCell id="gypbntjj0lspbqKL5SlP-48" value="&lt;b style=&quot;font-size: 14px;&quot;&gt;Browser/Laptop&lt;/b&gt;" style="rounded=0;whiteSpace=wrap;html=1;fontSize=14;" parent="gypbntjj0lspbqKL5SlP-1" vertex="1">
          <mxGeometry x="707" y="570" width="120" height="60" as="geometry" />
        </mxCell>
        <mxCell id="gypbntjj0lspbqKL5SlP-64" style="edgeStyle=orthogonalEdgeStyle;rounded=0;orthogonalLoop=1;jettySize=auto;html=1;fontSize=16;fontColor=default;strokeWidth=3;" parent="gypbntjj0lspbqKL5SlP-1" source="gypbntjj0lspbqKL5SlP-13" target="gypbntjj0lspbqKL5SlP-12" edge="1">
          <mxGeometry relative="1" as="geometry" />
        </mxCell>
        <mxCell id="gypbntjj0lspbqKL5SlP-13" value="&lt;b style=&quot;font-size: 14px;&quot;&gt;Veeam Baskup Server&lt;/b&gt;" style="rounded=0;whiteSpace=wrap;html=1;fontSize=14;" parent="gypbntjj0lspbqKL5SlP-1" vertex="1">
          <mxGeometry x="35" y="387" width="155" height="80" as="geometry" />
        </mxCell>
        <mxCell id="gypbntjj0lspbqKL5SlP-56" value="IT Firewall" style="rounded=0;whiteSpace=wrap;html=1;fontSize=16;" parent="gypbntjj0lspbqKL5SlP-1" vertex="1">
          <mxGeometry x="318" y="380" width="90" height="40" as="geometry" />
        </mxCell>
        <mxCell id="gypbntjj0lspbqKL5SlP-62" value="IT infrastructure" style="swimlane;horizontal=0;dashed=1;labelBackgroundColor=none;fontSize=16;fontColor=default;fillColor=#FF9999;gradientColor=none;strokeColor=#FF9999;strokeWidth=8;" parent="gypbntjj0lspbqKL5SlP-1" vertex="1">
          <mxGeometry x="8" y="350" width="460" height="235" as="geometry" />
        </mxCell>
        <mxCell id="gypbntjj0lspbqKL5SlP-4" value="" style="aspect=fixed;html=1;points=[];align=center;image;fontSize=12;image=img/lib/azure2/networking/Firewalls.svg;" parent="gypbntjj0lspbqKL5SlP-62" vertex="1">
          <mxGeometry x="241" y="20" width="71" height="60" as="geometry" />
        </mxCell>
        <mxCell id="ZHhCcTwRR518FxOhqTUu-1" value="&lt;b&gt;&lt;font style=&quot;font-size: 19px&quot; color=&quot;#FF0000&quot;&gt;?&lt;/font&gt;&lt;/b&gt;" style="rounded=0;whiteSpace=wrap;html=1;rotation=30;" vertex="1" parent="gypbntjj0lspbqKL5SlP-62">
          <mxGeometry x="206" y="190" width="48" height="30" as="geometry" />
        </mxCell>
        <mxCell id="ZHhCcTwRR518FxOhqTUu-9" value="" style="endArrow=classic;html=1;rounded=0;fontSize=19;fontColor=#FF0000;strokeColor=#FF0000;strokeWidth=2;exitX=0.761;exitY=0.083;exitDx=0;exitDy=0;exitPerimeter=0;" edge="1" parent="gypbntjj0lspbqKL5SlP-62" source="gypbntjj0lspbqKL5SlP-4">
          <mxGeometry width="50" height="50" relative="1" as="geometry">
            <mxPoint x="302" y="30" as="sourcePoint" />
            <mxPoint x="522" y="-140" as="targetPoint" />
          </mxGeometry>
        </mxCell>
        <mxCell id="ZHhCcTwRR518FxOhqTUu-11" value="" style="endArrow=classic;html=1;rounded=0;fontSize=19;fontColor=#FF0000;strokeColor=#FF0000;strokeWidth=2;exitX=0.761;exitY=0.083;exitDx=0;exitDy=0;exitPerimeter=0;entryX=-0.028;entryY=0.8;entryDx=0;entryDy=0;entryPerimeter=0;" edge="1" parent="gypbntjj0lspbqKL5SlP-62" target="gypbntjj0lspbqKL5SlP-4">
          <mxGeometry width="50" height="50" relative="1" as="geometry">
            <mxPoint x="163.01099999999994" y="132.49" as="sourcePoint" />
            <mxPoint x="389.98" y="-32.49000000000001" as="targetPoint" />
          </mxGeometry>
        </mxCell>
        <mxCell id="ZHhCcTwRR518FxOhqTUu-12" value="&lt;b&gt;&lt;font style=&quot;font-size: 19px&quot; color=&quot;#FF0000&quot;&gt;?&lt;/font&gt;&lt;/b&gt;" style="rounded=0;whiteSpace=wrap;html=1;rotation=-30;" vertex="1" parent="gypbntjj0lspbqKL5SlP-62">
          <mxGeometry x="182" y="50" width="48" height="30" as="geometry" />
        </mxCell>
        <mxCell id="gypbntjj0lspbqKL5SlP-63" value="IT infrastructure" style="swimlane;horizontal=0;dashed=1;labelBackgroundColor=none;fontSize=16;fontColor=default;fillColor=#FF9999;gradientColor=none;strokeColor=#FF9999;strokeWidth=8;" parent="gypbntjj0lspbqKL5SlP-1" vertex="1">
          <mxGeometry x="578" y="347" width="222" height="140" as="geometry" />
        </mxCell>
        <mxCell id="gypbntjj0lspbqKL5SlP-33" value="" style="aspect=fixed;html=1;points=[];align=center;image;fontSize=12;image=img/lib/azure2/networking/Firewalls.svg;" parent="gypbntjj0lspbqKL5SlP-63" vertex="1">
          <mxGeometry x="75.5" y="23" width="71" height="60" as="geometry" />
        </mxCell>
        <mxCell id="gypbntjj0lspbqKL5SlP-66" value="Backup and disaster recovery" style="rounded=0;whiteSpace=wrap;html=1;labelBackgroundColor=none;fontSize=16;fontColor=default;strokeColor=#1A1A1A;strokeWidth=8;fillColor=#FFFFFF;gradientColor=none;" parent="gypbntjj0lspbqKL5SlP-1" vertex="1">
          <mxGeometry x="35" y="40" width="295" height="60" as="geometry" />
        </mxCell>
        <mxCell id="ZHhCcTwRR518FxOhqTUu-7" value="" style="endArrow=classic;html=1;rounded=0;fontSize=19;fontColor=#FF0000;strokeColor=#000000;strokeWidth=2;entryX=1;entryY=0.167;entryDx=0;entryDy=0;entryPerimeter=0;exitX=-0.042;exitY=0.8;exitDx=0;exitDy=0;exitPerimeter=0;" edge="1" parent="gypbntjj0lspbqKL5SlP-1" source="gypbntjj0lspbqKL5SlP-30" target="gypbntjj0lspbqKL5SlP-4">
          <mxGeometry width="50" height="50" relative="1" as="geometry">
            <mxPoint x="530" y="210" as="sourcePoint" />
            <mxPoint x="540" y="270" as="targetPoint" />
          </mxGeometry>
        </mxCell>
        <mxCell id="ZHhCcTwRR518FxOhqTUu-8" value="" style="endArrow=classic;html=1;rounded=0;fontSize=19;fontColor=#FF0000;strokeColor=#000000;strokeWidth=2;exitX=0.056;exitY=0.983;exitDx=0;exitDy=0;exitPerimeter=0;" edge="1" parent="gypbntjj0lspbqKL5SlP-1" source="gypbntjj0lspbqKL5SlP-4" target="gypbntjj0lspbqKL5SlP-12">
          <mxGeometry width="50" height="50" relative="1" as="geometry">
            <mxPoint x="546.9760000000001" y="228" as="sourcePoint" />
            <mxPoint x="330" y="390.02" as="targetPoint" />
          </mxGeometry>
        </mxCell>
        <mxCell id="ZHhCcTwRR518FxOhqTUu-10" value="&lt;b&gt;&lt;font style=&quot;font-size: 19px&quot; color=&quot;#FF0000&quot;&gt;?&lt;/font&gt;&lt;/b&gt;" style="rounded=0;whiteSpace=wrap;html=1;rotation=-45;direction=west;" vertex="1" parent="gypbntjj0lspbqKL5SlP-1">
          <mxGeometry x="350" y="280" width="48" height="30" as="geometry" />
        </mxCell>
      </root>
    </mxGraphModel>
  </diagram>
  <diagram id="M3PTSNWxB7aMRY2qMHZm" name="Page-6">
    <mxGraphModel dx="1038" dy="536" grid="1" gridSize="10" guides="1" tooltips="1" connect="1" arrows="1" fold="1" page="1" pageScale="1" pageWidth="827" pageHeight="1169" math="0" shadow="0">
      <root>
        <mxCell id="PA_IQCq6yr2OzmiDx_Cc-0" />
        <mxCell id="PA_IQCq6yr2OzmiDx_Cc-1" parent="PA_IQCq6yr2OzmiDx_Cc-0" />
        <mxCell id="PA_IQCq6yr2OzmiDx_Cc-2" value="" style="shape=table;startSize=0;container=1;collapsible=0;childLayout=tableLayout;fontSize=13;fillColor=#9AC7BF;whiteSpace=wrap;spacingLeft=8;" vertex="1" parent="PA_IQCq6yr2OzmiDx_Cc-1">
          <mxGeometry x="20" y="180" width="800" height="884" as="geometry" />
        </mxCell>
        <mxCell id="PA_IQCq6yr2OzmiDx_Cc-3" value="" style="shape=tableRow;horizontal=0;startSize=0;swimlaneHead=0;swimlaneBody=0;top=0;left=0;bottom=0;right=0;collapsible=0;dropTarget=0;fillColor=none;points=[[0,0.5],[1,0.5]];portConstraint=eastwest;fontSize=13;" vertex="1" parent="PA_IQCq6yr2OzmiDx_Cc-2">
          <mxGeometry width="800" height="46" as="geometry" />
        </mxCell>
        <mxCell id="PA_IQCq6yr2OzmiDx_Cc-4" value="FROM" style="shape=partialRectangle;html=1;connectable=0;overflow=hidden;fillColor=none;top=0;left=0;bottom=0;right=0;pointerEvents=1;fontSize=13;whiteSpace=wrap;" vertex="1" parent="PA_IQCq6yr2OzmiDx_Cc-3">
          <mxGeometry width="140" height="46" as="geometry">
            <mxRectangle width="140" height="46" as="alternateBounds" />
          </mxGeometry>
        </mxCell>
        <mxCell id="PA_IQCq6yr2OzmiDx_Cc-5" value="TO" style="shape=partialRectangle;html=1;whiteSpace=wrap;connectable=0;overflow=hidden;fillColor=none;top=0;left=0;bottom=0;right=0;pointerEvents=1;fontSize=13;" vertex="1" parent="PA_IQCq6yr2OzmiDx_Cc-3">
          <mxGeometry x="140" width="160" height="46" as="geometry">
            <mxRectangle width="160" height="46" as="alternateBounds" />
          </mxGeometry>
        </mxCell>
        <mxCell id="PA_IQCq6yr2OzmiDx_Cc-6" value="Protocol" style="shape=partialRectangle;html=1;whiteSpace=wrap;connectable=0;overflow=hidden;fillColor=none;top=0;left=0;bottom=0;right=0;pointerEvents=1;fontSize=13;" vertex="1" parent="PA_IQCq6yr2OzmiDx_Cc-3">
          <mxGeometry x="300" width="90" height="46" as="geometry">
            <mxRectangle width="90" height="46" as="alternateBounds" />
          </mxGeometry>
        </mxCell>
        <mxCell id="PA_IQCq6yr2OzmiDx_Cc-7" value="Port" style="shape=partialRectangle;html=1;whiteSpace=wrap;connectable=0;overflow=hidden;fillColor=none;top=0;left=0;bottom=0;right=0;pointerEvents=1;fontSize=13;" vertex="1" parent="PA_IQCq6yr2OzmiDx_Cc-3">
          <mxGeometry x="390" width="100" height="46" as="geometry">
            <mxRectangle width="100" height="46" as="alternateBounds" />
          </mxGeometry>
        </mxCell>
        <mxCell id="PA_IQCq6yr2OzmiDx_Cc-43" value="Notes" style="shape=partialRectangle;html=1;whiteSpace=wrap;connectable=0;overflow=hidden;fillColor=none;top=0;left=0;bottom=0;right=0;pointerEvents=1;fontSize=13;" vertex="1" parent="PA_IQCq6yr2OzmiDx_Cc-3">
          <mxGeometry x="490" width="310" height="46" as="geometry">
            <mxRectangle width="310" height="46" as="alternateBounds" />
          </mxGeometry>
        </mxCell>
        <mxCell id="PA_IQCq6yr2OzmiDx_Cc-8" value="" style="shape=tableRow;horizontal=0;startSize=0;swimlaneHead=0;swimlaneBody=0;top=0;left=0;bottom=0;right=0;collapsible=0;dropTarget=0;fillColor=none;points=[[0,0.5],[1,0.5]];portConstraint=eastwest;fontSize=13;" vertex="1" parent="PA_IQCq6yr2OzmiDx_Cc-2">
          <mxGeometry y="46" width="800" height="284" as="geometry" />
        </mxCell>
        <mxCell id="PA_IQCq6yr2OzmiDx_Cc-9" value="&lt;span&gt;Backup server&lt;/span&gt;" style="shape=partialRectangle;html=1;whiteSpace=wrap;connectable=0;overflow=hidden;fillColor=none;top=0;left=0;bottom=0;right=0;pointerEvents=1;fontSize=13;" vertex="1" parent="PA_IQCq6yr2OzmiDx_Cc-8">
          <mxGeometry width="140" height="284" as="geometry">
            <mxRectangle width="140" height="284" as="alternateBounds" />
          </mxGeometry>
        </mxCell>
        <mxCell id="PA_IQCq6yr2OzmiDx_Cc-10" value="&lt;span&gt;NAS/Backup Repository &lt;br&gt;&lt;/span&gt;" style="shape=partialRectangle;html=1;whiteSpace=wrap;connectable=0;overflow=hidden;fillColor=none;top=0;left=0;bottom=0;right=0;pointerEvents=1;fontSize=13;" vertex="1" parent="PA_IQCq6yr2OzmiDx_Cc-8">
          <mxGeometry x="140" width="160" height="284" as="geometry">
            <mxRectangle width="160" height="284" as="alternateBounds" />
          </mxGeometry>
        </mxCell>
        <mxCell id="PA_IQCq6yr2OzmiDx_Cc-11" value="&#xa;&lt;span&gt;TCP&lt;/span&gt;&#xa;&#xa;" style="shape=partialRectangle;html=1;whiteSpace=wrap;connectable=0;overflow=hidden;fillColor=none;top=0;left=0;bottom=0;right=0;pointerEvents=1;fontSize=13;" vertex="1" parent="PA_IQCq6yr2OzmiDx_Cc-8">
          <mxGeometry x="300" width="90" height="284" as="geometry">
            <mxRectangle width="90" height="284" as="alternateBounds" />
          </mxGeometry>
        </mxCell>
        <mxCell id="PA_IQCq6yr2OzmiDx_Cc-12" value="&lt;span&gt;2500 to 3300&lt;/span&gt;&lt;span style=&quot;font-size: 7pt ; vertical-align: super&quot;&gt;&lt;/span&gt;" style="shape=partialRectangle;html=1;whiteSpace=wrap;connectable=0;overflow=hidden;fillColor=none;top=0;left=0;bottom=0;right=0;pointerEvents=1;fontSize=13;" vertex="1" parent="PA_IQCq6yr2OzmiDx_Cc-8">
          <mxGeometry x="390" width="100" height="284" as="geometry">
            <mxRectangle width="100" height="284" as="alternateBounds" />
          </mxGeometry>
        </mxCell>
        <mxCell id="PA_IQCq6yr2OzmiDx_Cc-44" value="&lt;p&gt;&lt;span&gt;Default range of ports used as data transmission channels and for collecting log files.&lt;/span&gt;&lt;/p&gt;&lt;p&gt;&lt;span&gt;For every TCP connection that a job uses, one port from this range is assigned.&lt;/span&gt;&lt;/p&gt;&lt;p&gt;&lt;span&gt;&lt;br&gt;&lt;/span&gt;&lt;/p&gt;&lt;p&gt;&lt;font size=&quot;1&quot;&gt;&lt;i&gt;&lt;span class=&quot;Small_Text&quot; style=&quot;font-size: 12px&quot;&gt;This range of ports applies to newly installed &lt;br&gt;Veeam&amp;nbsp;Backup&amp;nbsp;&amp;amp;&amp;nbsp;Replication starting from version 10.0, without &lt;br&gt;upgrade from previous versions. If you have upgraded from an earlier &lt;br&gt;version of the product, the range of ports from 2500 to 5000 applies to &lt;br&gt;the already added components.&lt;/span&gt;&lt;/i&gt;&lt;/font&gt;&lt;span&gt;&lt;/span&gt;&lt;/p&gt;" style="shape=partialRectangle;html=1;connectable=0;overflow=hidden;fillColor=none;top=0;left=0;bottom=0;right=0;pointerEvents=1;fontSize=13;whiteSpace=wrap;spacingTop=0;spacing=0;align=left;spacingLeft=7;" vertex="1" parent="PA_IQCq6yr2OzmiDx_Cc-8">
          <mxGeometry x="490" width="310" height="284" as="geometry">
            <mxRectangle width="310" height="284" as="alternateBounds" />
          </mxGeometry>
        </mxCell>
        <mxCell id="PA_IQCq6yr2OzmiDx_Cc-50" style="shape=tableRow;horizontal=0;startSize=0;swimlaneHead=0;swimlaneBody=0;top=0;left=0;bottom=0;right=0;collapsible=0;dropTarget=0;fillColor=none;points=[[0,0.5],[1,0.5]];portConstraint=eastwest;fontSize=13;" vertex="1" parent="PA_IQCq6yr2OzmiDx_Cc-2">
          <mxGeometry y="330" width="800" height="90" as="geometry" />
        </mxCell>
        <mxCell id="PA_IQCq6yr2OzmiDx_Cc-51" value="&lt;span&gt;Backup server&lt;/span&gt;" style="shape=partialRectangle;html=1;whiteSpace=wrap;connectable=0;overflow=hidden;fillColor=none;top=0;left=0;bottom=0;right=0;pointerEvents=1;fontSize=13;" vertex="1" parent="PA_IQCq6yr2OzmiDx_Cc-50">
          <mxGeometry width="140" height="90" as="geometry">
            <mxRectangle width="140" height="90" as="alternateBounds" />
          </mxGeometry>
        </mxCell>
        <mxCell id="PA_IQCq6yr2OzmiDx_Cc-52" value="&lt;span&gt;Microsoft Windows server/Management Server&lt;br&gt;&lt;/span&gt;" style="shape=partialRectangle;html=1;whiteSpace=wrap;connectable=0;overflow=hidden;fillColor=none;top=0;left=0;bottom=0;right=0;pointerEvents=1;fontSize=13;" vertex="1" parent="PA_IQCq6yr2OzmiDx_Cc-50">
          <mxGeometry x="140" width="160" height="90" as="geometry">
            <mxRectangle width="160" height="90" as="alternateBounds" />
          </mxGeometry>
        </mxCell>
        <mxCell id="PA_IQCq6yr2OzmiDx_Cc-53" value="&lt;span&gt;TCP&lt;/span&gt;" style="shape=partialRectangle;html=1;whiteSpace=wrap;connectable=0;overflow=hidden;fillColor=none;top=0;left=0;bottom=0;right=0;pointerEvents=1;fontSize=13;" vertex="1" parent="PA_IQCq6yr2OzmiDx_Cc-50">
          <mxGeometry x="300" width="90" height="90" as="geometry">
            <mxRectangle width="90" height="90" as="alternateBounds" />
          </mxGeometry>
        </mxCell>
        <mxCell id="PA_IQCq6yr2OzmiDx_Cc-54" value="&lt;span&gt;445&lt;/span&gt;" style="shape=partialRectangle;html=1;whiteSpace=wrap;connectable=0;overflow=hidden;fillColor=none;top=0;left=0;bottom=0;right=0;pointerEvents=1;fontSize=13;" vertex="1" parent="PA_IQCq6yr2OzmiDx_Cc-50">
          <mxGeometry x="390" width="100" height="90" as="geometry">
            <mxRectangle width="100" height="90" as="alternateBounds" />
          </mxGeometry>
        </mxCell>
        <mxCell id="PA_IQCq6yr2OzmiDx_Cc-55" value="&lt;p&gt;&lt;span&gt;Port required for deploying &lt;/span&gt;&lt;span&gt;Veeam&amp;nbsp;Backup&amp;nbsp;&amp;amp;&amp;nbsp;Replication&lt;/span&gt;&lt;span&gt; components.&lt;/span&gt;&lt;/p&gt;" style="shape=partialRectangle;html=1;connectable=0;overflow=hidden;fillColor=none;top=0;left=0;bottom=0;right=0;pointerEvents=1;fontSize=13;whiteSpace=wrap;spacingTop=0;spacing=0;" vertex="1" parent="PA_IQCq6yr2OzmiDx_Cc-50">
          <mxGeometry x="490" width="310" height="90" as="geometry">
            <mxRectangle width="310" height="90" as="alternateBounds" />
          </mxGeometry>
        </mxCell>
        <mxCell id="aCnxM7o68cfe_cWO-tIZ-0" style="shape=tableRow;horizontal=0;startSize=0;swimlaneHead=0;swimlaneBody=0;top=0;left=0;bottom=0;right=0;collapsible=0;dropTarget=0;fillColor=none;points=[[0,0.5],[1,0.5]];portConstraint=eastwest;fontSize=13;" vertex="1" parent="PA_IQCq6yr2OzmiDx_Cc-2">
          <mxGeometry y="420" width="800" height="140" as="geometry" />
        </mxCell>
        <mxCell id="aCnxM7o68cfe_cWO-tIZ-1" value="&lt;span&gt;Backup server&lt;/span&gt;" style="shape=partialRectangle;html=1;whiteSpace=wrap;connectable=0;overflow=hidden;fillColor=none;top=0;left=0;bottom=0;right=0;pointerEvents=1;fontSize=13;" vertex="1" parent="aCnxM7o68cfe_cWO-tIZ-0">
          <mxGeometry width="140" height="140" as="geometry">
            <mxRectangle width="140" height="140" as="alternateBounds" />
          </mxGeometry>
        </mxCell>
        <mxCell id="aCnxM7o68cfe_cWO-tIZ-2" value="PC&#39;s/Veeam Agent Computer" style="shape=partialRectangle;html=1;whiteSpace=wrap;connectable=0;overflow=hidden;fillColor=none;top=0;left=0;bottom=0;right=0;pointerEvents=1;fontSize=13;" vertex="1" parent="aCnxM7o68cfe_cWO-tIZ-0">
          <mxGeometry x="140" width="160" height="140" as="geometry">
            <mxRectangle width="160" height="140" as="alternateBounds" />
          </mxGeometry>
        </mxCell>
        <mxCell id="aCnxM7o68cfe_cWO-tIZ-3" value="TCP" style="shape=partialRectangle;html=1;whiteSpace=wrap;connectable=0;overflow=hidden;fillColor=none;top=0;left=0;bottom=0;right=0;pointerEvents=1;fontSize=13;" vertex="1" parent="aCnxM7o68cfe_cWO-tIZ-0">
          <mxGeometry x="300" width="90" height="140" as="geometry">
            <mxRectangle width="90" height="140" as="alternateBounds" />
          </mxGeometry>
        </mxCell>
        <mxCell id="aCnxM7o68cfe_cWO-tIZ-4" value="&lt;span&gt;10001&lt;/span&gt;" style="shape=partialRectangle;html=1;whiteSpace=wrap;connectable=0;overflow=hidden;fillColor=none;top=0;left=0;bottom=0;right=0;pointerEvents=1;fontSize=13;" vertex="1" parent="aCnxM7o68cfe_cWO-tIZ-0">
          <mxGeometry x="390" width="100" height="140" as="geometry">
            <mxRectangle width="100" height="140" as="alternateBounds" />
          </mxGeometry>
        </mxCell>
        <mxCell id="aCnxM7o68cfe_cWO-tIZ-5" value="&lt;p&gt;&lt;span&gt;Default port used by &lt;/span&gt;&lt;span&gt;Veeam Agent for Microsoft Windows&lt;/span&gt;&lt;span&gt; operating in the standalone mode for communication with the Veeam Backup server.&lt;/span&gt;&lt;/p&gt;&lt;p&gt;&lt;span&gt;Data between the &lt;/span&gt;&lt;span&gt;Veeam Agent&lt;/span&gt;&lt;span&gt; computer and backup repositories is transferred directly, bypassing Veeam backup servers.&lt;/span&gt;&lt;/p&gt;" style="shape=partialRectangle;html=1;connectable=0;overflow=hidden;fillColor=none;top=0;left=0;bottom=0;right=0;pointerEvents=1;fontSize=13;whiteSpace=wrap;spacingTop=0;spacing=0;" vertex="1" parent="aCnxM7o68cfe_cWO-tIZ-0">
          <mxGeometry x="490" width="310" height="140" as="geometry">
            <mxRectangle width="310" height="140" as="alternateBounds" />
          </mxGeometry>
        </mxCell>
        <mxCell id="aCnxM7o68cfe_cWO-tIZ-27" style="shape=tableRow;horizontal=0;startSize=0;swimlaneHead=0;swimlaneBody=0;top=0;left=0;bottom=0;right=0;collapsible=0;dropTarget=0;fillColor=none;points=[[0,0.5],[1,0.5]];portConstraint=eastwest;fontSize=13;" vertex="1" parent="PA_IQCq6yr2OzmiDx_Cc-2">
          <mxGeometry y="560" width="800" height="70" as="geometry" />
        </mxCell>
        <mxCell id="aCnxM7o68cfe_cWO-tIZ-28" value="PC&#39;s/Veeam Agent Computer" style="shape=partialRectangle;html=1;whiteSpace=wrap;connectable=0;overflow=hidden;fillColor=none;top=0;left=0;bottom=0;right=0;pointerEvents=1;fontSize=13;" vertex="1" parent="aCnxM7o68cfe_cWO-tIZ-27">
          <mxGeometry width="140" height="70" as="geometry">
            <mxRectangle width="140" height="70" as="alternateBounds" />
          </mxGeometry>
        </mxCell>
        <mxCell id="aCnxM7o68cfe_cWO-tIZ-29" value="&lt;span&gt;Veeam Update Notification Server (autolk.veeam.com)&lt;/span&gt;" style="shape=partialRectangle;html=1;whiteSpace=wrap;connectable=0;overflow=hidden;fillColor=none;top=0;left=0;bottom=0;right=0;pointerEvents=1;fontSize=13;" vertex="1" parent="aCnxM7o68cfe_cWO-tIZ-27">
          <mxGeometry x="140" width="160" height="70" as="geometry">
            <mxRectangle width="160" height="70" as="alternateBounds" />
          </mxGeometry>
        </mxCell>
        <mxCell id="aCnxM7o68cfe_cWO-tIZ-30" value="TCP" style="shape=partialRectangle;html=1;whiteSpace=wrap;connectable=0;overflow=hidden;fillColor=none;top=0;left=0;bottom=0;right=0;pointerEvents=1;fontSize=13;" vertex="1" parent="aCnxM7o68cfe_cWO-tIZ-27">
          <mxGeometry x="300" width="90" height="70" as="geometry">
            <mxRectangle width="90" height="70" as="alternateBounds" />
          </mxGeometry>
        </mxCell>
        <mxCell id="aCnxM7o68cfe_cWO-tIZ-31" value="443" style="shape=partialRectangle;html=1;whiteSpace=wrap;connectable=0;overflow=hidden;fillColor=none;top=0;left=0;bottom=0;right=0;pointerEvents=1;fontSize=13;" vertex="1" parent="aCnxM7o68cfe_cWO-tIZ-27">
          <mxGeometry x="390" width="100" height="70" as="geometry">
            <mxRectangle width="100" height="70" as="alternateBounds" />
          </mxGeometry>
        </mxCell>
        <mxCell id="aCnxM7o68cfe_cWO-tIZ-32" value="&lt;span&gt;Default port used to download information about available updates from the Veeam Update Notification Server over the Internet.&lt;/span&gt;" style="shape=partialRectangle;html=1;connectable=0;overflow=hidden;fillColor=none;top=0;left=0;bottom=0;right=0;pointerEvents=1;fontSize=13;whiteSpace=wrap;spacingTop=0;spacing=0;" vertex="1" parent="aCnxM7o68cfe_cWO-tIZ-27">
          <mxGeometry x="490" width="310" height="70" as="geometry">
            <mxRectangle width="310" height="70" as="alternateBounds" />
          </mxGeometry>
        </mxCell>
        <mxCell id="aCnxM7o68cfe_cWO-tIZ-14" style="shape=tableRow;horizontal=0;startSize=0;swimlaneHead=0;swimlaneBody=0;top=0;left=0;bottom=0;right=0;collapsible=0;dropTarget=0;fillColor=none;points=[[0,0.5],[1,0.5]];portConstraint=eastwest;fontSize=13;" vertex="1" parent="PA_IQCq6yr2OzmiDx_Cc-2">
          <mxGeometry y="630" width="800" height="80" as="geometry" />
        </mxCell>
        <mxCell id="aCnxM7o68cfe_cWO-tIZ-15" value="&lt;span&gt;Backup server&lt;/span&gt;" style="shape=partialRectangle;html=1;whiteSpace=wrap;connectable=0;overflow=hidden;fillColor=none;top=0;left=0;bottom=0;right=0;pointerEvents=1;fontSize=13;" vertex="1" parent="aCnxM7o68cfe_cWO-tIZ-14">
          <mxGeometry width="140" height="80" as="geometry">
            <mxRectangle width="140" height="80" as="alternateBounds" />
          </mxGeometry>
        </mxCell>
        <mxCell id="aCnxM7o68cfe_cWO-tIZ-16" value="&lt;span&gt;Veeam License Update Server (vbr.butler.veeam.com, autolk.veeam.com)&lt;/span&gt;" style="shape=partialRectangle;html=1;whiteSpace=wrap;connectable=0;overflow=hidden;fillColor=none;top=0;left=0;bottom=0;right=0;pointerEvents=1;fontSize=13;" vertex="1" parent="aCnxM7o68cfe_cWO-tIZ-14">
          <mxGeometry x="140" width="160" height="80" as="geometry">
            <mxRectangle width="160" height="80" as="alternateBounds" />
          </mxGeometry>
        </mxCell>
        <mxCell id="aCnxM7o68cfe_cWO-tIZ-17" value="TCP" style="shape=partialRectangle;html=1;whiteSpace=wrap;connectable=0;overflow=hidden;fillColor=none;top=0;left=0;bottom=0;right=0;pointerEvents=1;fontSize=13;" vertex="1" parent="aCnxM7o68cfe_cWO-tIZ-14">
          <mxGeometry x="300" width="90" height="80" as="geometry">
            <mxRectangle width="90" height="80" as="alternateBounds" />
          </mxGeometry>
        </mxCell>
        <mxCell id="aCnxM7o68cfe_cWO-tIZ-18" value="443" style="shape=partialRectangle;html=1;whiteSpace=wrap;connectable=0;overflow=hidden;fillColor=none;top=0;left=0;bottom=0;right=0;pointerEvents=1;fontSize=13;" vertex="1" parent="aCnxM7o68cfe_cWO-tIZ-14">
          <mxGeometry x="390" width="100" height="80" as="geometry">
            <mxRectangle width="100" height="80" as="alternateBounds" />
          </mxGeometry>
        </mxCell>
        <mxCell id="aCnxM7o68cfe_cWO-tIZ-19" value="&lt;p&gt;&lt;span&gt;Default port used for license auto-update.&lt;/span&gt;&lt;/p&gt;" style="shape=partialRectangle;html=1;connectable=0;overflow=hidden;fillColor=none;top=0;left=0;bottom=0;right=0;pointerEvents=1;fontSize=13;whiteSpace=wrap;spacingTop=0;spacing=0;" vertex="1" parent="aCnxM7o68cfe_cWO-tIZ-14">
          <mxGeometry x="490" width="310" height="80" as="geometry">
            <mxRectangle width="310" height="80" as="alternateBounds" />
          </mxGeometry>
        </mxCell>
        <mxCell id="aCnxM7o68cfe_cWO-tIZ-20" style="shape=tableRow;horizontal=0;startSize=0;swimlaneHead=0;swimlaneBody=0;top=0;left=0;bottom=0;right=0;collapsible=0;dropTarget=0;fillColor=none;points=[[0,0.5],[1,0.5]];portConstraint=eastwest;fontSize=13;" vertex="1" parent="PA_IQCq6yr2OzmiDx_Cc-2">
          <mxGeometry y="710" width="800" height="174" as="geometry" />
        </mxCell>
        <mxCell id="aCnxM7o68cfe_cWO-tIZ-21" value="&lt;span&gt;Backup server&lt;/span&gt;" style="shape=partialRectangle;html=1;whiteSpace=wrap;connectable=0;overflow=hidden;fillColor=none;top=0;left=0;bottom=0;right=0;pointerEvents=1;fontSize=13;" vertex="1" parent="aCnxM7o68cfe_cWO-tIZ-20">
          <mxGeometry width="140" height="174" as="geometry">
            <mxRectangle width="140" height="174" as="alternateBounds" />
          </mxGeometry>
        </mxCell>
        <mxCell id="aCnxM7o68cfe_cWO-tIZ-22" value="&lt;span&gt;Veeam Update Notification Server (dev.veeam.com)&lt;/span&gt;" style="shape=partialRectangle;html=1;whiteSpace=wrap;connectable=0;overflow=hidden;fillColor=none;top=0;left=0;bottom=0;right=0;pointerEvents=1;fontSize=13;" vertex="1" parent="aCnxM7o68cfe_cWO-tIZ-20">
          <mxGeometry x="140" width="160" height="174" as="geometry">
            <mxRectangle width="160" height="174" as="alternateBounds" />
          </mxGeometry>
        </mxCell>
        <mxCell id="aCnxM7o68cfe_cWO-tIZ-23" value="HTTPS TCP" style="shape=partialRectangle;html=1;whiteSpace=wrap;connectable=0;overflow=hidden;fillColor=none;top=0;left=0;bottom=0;right=0;pointerEvents=1;fontSize=13;" vertex="1" parent="aCnxM7o68cfe_cWO-tIZ-20">
          <mxGeometry x="300" width="90" height="174" as="geometry">
            <mxRectangle width="90" height="174" as="alternateBounds" />
          </mxGeometry>
        </mxCell>
        <mxCell id="aCnxM7o68cfe_cWO-tIZ-24" value="443" style="shape=partialRectangle;html=1;whiteSpace=wrap;connectable=0;overflow=hidden;fillColor=none;top=0;left=0;bottom=0;right=0;pointerEvents=1;fontSize=13;" vertex="1" parent="aCnxM7o68cfe_cWO-tIZ-20">
          <mxGeometry x="390" width="100" height="174" as="geometry">
            <mxRectangle width="100" height="174" as="alternateBounds" />
          </mxGeometry>
        </mxCell>
        <mxCell id="aCnxM7o68cfe_cWO-tIZ-25" value="&lt;span&gt;Default port used to download information about available updates from the Veeam Update Notification Server over the Internet.&lt;/span&gt;" style="shape=partialRectangle;html=1;connectable=0;overflow=hidden;fillColor=none;top=0;left=0;bottom=0;right=0;pointerEvents=1;fontSize=13;whiteSpace=wrap;spacingTop=0;spacing=0;" vertex="1" parent="aCnxM7o68cfe_cWO-tIZ-20">
          <mxGeometry x="490" width="310" height="174" as="geometry">
            <mxRectangle width="310" height="174" as="alternateBounds" />
          </mxGeometry>
        </mxCell>
        <mxCell id="PA_IQCq6yr2OzmiDx_Cc-56" value="" style="shape=table;startSize=0;container=1;collapsible=0;childLayout=tableLayout;fontSize=13;fillColor=default;" vertex="1" parent="PA_IQCq6yr2OzmiDx_Cc-1">
          <mxGeometry x="20" y="1080" width="760" height="80" as="geometry" />
        </mxCell>
        <mxCell id="PA_IQCq6yr2OzmiDx_Cc-57" value="" style="shape=tableRow;horizontal=0;startSize=0;swimlaneHead=0;swimlaneBody=0;top=0;left=0;bottom=0;right=0;collapsible=0;dropTarget=0;fillColor=none;points=[[0,0.5],[1,0.5]];portConstraint=eastwest;fontSize=13;" vertex="1" parent="PA_IQCq6yr2OzmiDx_Cc-56">
          <mxGeometry width="760" height="40" as="geometry" />
        </mxCell>
        <mxCell id="PA_IQCq6yr2OzmiDx_Cc-58" value="System Requirements" style="shape=partialRectangle;html=1;whiteSpace=wrap;connectable=0;overflow=hidden;fillColor=none;top=0;left=0;bottom=0;right=0;pointerEvents=1;fontSize=13;" vertex="1" parent="PA_IQCq6yr2OzmiDx_Cc-57">
          <mxGeometry width="150" height="40" as="geometry">
            <mxRectangle width="150" height="40" as="alternateBounds" />
          </mxGeometry>
        </mxCell>
        <mxCell id="PA_IQCq6yr2OzmiDx_Cc-59" value="Link" style="shape=partialRectangle;html=1;whiteSpace=wrap;connectable=0;overflow=hidden;fillColor=none;top=0;left=0;bottom=0;right=0;pointerEvents=1;fontSize=13;" vertex="1" parent="PA_IQCq6yr2OzmiDx_Cc-57">
          <mxGeometry x="150" width="610" height="40" as="geometry">
            <mxRectangle width="610" height="40" as="alternateBounds" />
          </mxGeometry>
        </mxCell>
        <mxCell id="PA_IQCq6yr2OzmiDx_Cc-60" value="" style="shape=tableRow;horizontal=0;startSize=0;swimlaneHead=0;swimlaneBody=0;top=0;left=0;bottom=0;right=0;collapsible=0;dropTarget=0;fillColor=none;points=[[0,0.5],[1,0.5]];portConstraint=eastwest;fontSize=13;" vertex="1" parent="PA_IQCq6yr2OzmiDx_Cc-56">
          <mxGeometry y="40" width="760" height="40" as="geometry" />
        </mxCell>
        <mxCell id="PA_IQCq6yr2OzmiDx_Cc-61" value="Backup Server" style="shape=partialRectangle;html=1;whiteSpace=wrap;connectable=0;overflow=hidden;fillColor=none;top=0;left=0;bottom=0;right=0;pointerEvents=1;fontSize=13;" vertex="1" parent="PA_IQCq6yr2OzmiDx_Cc-60">
          <mxGeometry width="150" height="40" as="geometry">
            <mxRectangle width="150" height="40" as="alternateBounds" />
          </mxGeometry>
        </mxCell>
        <mxCell id="PA_IQCq6yr2OzmiDx_Cc-62" value="&lt;a href=&quot;https://helpcenter.veeam.com/docs/backup/vsphere/system_requirements.html?ver=110#backup-server&quot;&gt;https://helpcenter.veeam.com/docs/backup/vsphere/system_requirements.html?ver=110#backup-server&lt;/a&gt;" style="shape=partialRectangle;html=1;whiteSpace=wrap;connectable=0;overflow=hidden;fillColor=none;top=0;left=0;bottom=0;right=0;pointerEvents=1;fontSize=13;" vertex="1" parent="PA_IQCq6yr2OzmiDx_Cc-60">
          <mxGeometry x="150" width="610" height="40" as="geometry">
            <mxRectangle width="610" height="40" as="alternateBounds" />
          </mxGeometry>
        </mxCell>
        <mxCell id="aCnxM7o68cfe_cWO-tIZ-13" value="&lt;div&gt;Firewall rules:&lt;/div&gt;&lt;div&gt;&lt;br&gt;&lt;/div&gt;&lt;div&gt;&lt;ul&gt;&lt;li&gt;Backup server to/from NAS (QNAP)&lt;/li&gt;&lt;li&gt;Backup server to/from Management Server&lt;/li&gt;&lt;li&gt;Backup server to/from agent (PC&#39;s)&lt;/li&gt;&lt;ul&gt;&lt;li&gt;Agents to Veeam Update Server&lt;/li&gt;&lt;li&gt;Backup to Veeam Update Server&lt;br&gt;&lt;/li&gt;&lt;/ul&gt;&lt;/ul&gt;&lt;/div&gt;" style="rounded=0;whiteSpace=wrap;html=1;labelBackgroundColor=#FFFFFF;fontSize=12;fillColor=default;align=left;" vertex="1" parent="PA_IQCq6yr2OzmiDx_Cc-1">
          <mxGeometry x="20" y="40" width="490" height="130" as="geometry" />
        </mxCell>
      </root>
    </mxGraphModel>
  </diagram>
</mxfile>
